<svg width="132" height="81" viewBox="0 0 132 81" fill="none" xmlns="http://www.w3.org/2000/svg">
<rect x="2" y="32.7273" width="85.6552" height="46.2727" stroke="white" stroke-width="4"/>
<path d="M93.2414 59.4545H120C125.523 59.4545 130 54.9774 130 49.4546V12C130 6.47715 125.523 2 120 2H50.3448C44.822 2 40.3448 6.47716 40.3448 12V27.1364" stroke="white" stroke-width="4"/>
<path d="M59.8621 55.8636C59.8621 64.1818 53.1284 70.9205 44.8276 70.9205C36.5268 70.9205 29.7931 64.1818 29.7931 55.8636C29.7931 47.5455 36.5268 40.8068 44.8276 40.8068C53.1284 40.8068 59.8621 47.5455 59.8621 55.8636Z" stroke="white" stroke-opacity="0.5" stroke-width="4"/>
<path d="M69.0345 39.7045H80.6897V54.0682" stroke="white" stroke-opacity="0.5" stroke-width="4"/>
<path d="M20.6207 72.0227H8.96552V57.6591" stroke="white" stroke-opacity="0.5" stroke-width="4"/>
<path d="M8.96551 54.0682V46.8864" stroke="white" stroke-opacity="0.5" stroke-width="4"/>
<path fill-rule="evenodd" clip-rule="evenodd" d="M110.276 50.441C108.946 51.583 107.219 52.2727 105.331 52.2727C101.13 52.2727 97.7241 48.8563 97.7241 44.642C97.7241 40.4277 101.13 37.0114 105.331 37.0114C107.219 37.0114 108.946 37.7011 110.276 38.843C111.606 37.7011 113.333 37.0114 115.22 37.0114C119.422 37.0114 122.828 40.4277 122.828 44.642C122.828 48.8563 119.422 52.2727 115.22 52.2727C113.333 52.2727 111.606 51.583 110.276 50.441Z" fill="white"/>
<rect x="42.1379" y="11.875" width="86.069" height="4.48864" fill="white" fill-opacity="0.5"/>
<rect x="42.1379" y="19.9546" width="86.069" height="4.48864" fill="white" fill-opacity="0.5"/>
<path d="M44.1101 63.4545V48.9091H45.0419V63.4545H44.1101ZM46.5817 53.7102C46.5362 53.2519 46.3411 52.8958 45.9964 52.642C45.6518 52.3883 45.1839 52.2614 44.593 52.2614C44.1915 52.2614 43.8525 52.3182 43.576 52.4318C43.2995 52.5417 43.0874 52.6951 42.9396 52.892C42.7957 53.089 42.7237 53.3125 42.7237 53.5625C42.7161 53.7708 42.7597 53.9527 42.8544 54.108C42.9529 54.2633 43.0874 54.3977 43.2578 54.5114C43.4283 54.6212 43.6252 54.7178 43.8487 54.8011C44.0722 54.8807 44.3108 54.9489 44.5646 55.0057L45.6101 55.2557C46.1177 55.3693 46.5836 55.5208 47.0078 55.7102C47.4321 55.8996 47.7995 56.1326 48.1101 56.4091C48.4207 56.6856 48.6612 57.0114 48.8317 57.3864C49.0059 57.7614 49.0949 58.1913 49.0987 58.6761C49.0949 59.3883 48.9131 60.0057 48.5533 60.5284C48.1972 61.0473 47.6821 61.4508 47.0078 61.7386C46.3374 62.0227 45.5286 62.1648 44.5817 62.1648C43.6423 62.1648 42.8241 62.0208 42.1271 61.733C41.4339 61.4451 40.8923 61.0189 40.5021 60.4545C40.1158 59.8864 39.9131 59.1837 39.8942 58.3466H42.2749C42.3014 58.7367 42.4131 59.0625 42.6101 59.3239C42.8108 59.5814 43.0779 59.7765 43.4112 59.9091C43.7483 60.0379 44.129 60.1023 44.5533 60.1023C44.9699 60.1023 45.3317 60.0417 45.6385 59.9205C45.9491 59.7992 46.1896 59.6307 46.3601 59.4148C46.5305 59.1989 46.6158 58.9508 46.6158 58.6705C46.6158 58.4091 46.5381 58.1894 46.3828 58.0114C46.2313 57.8333 46.0078 57.6818 45.7124 57.5568C45.4207 57.4318 45.0627 57.3182 44.6385 57.2159L43.3714 56.8977C42.3904 56.6591 41.6158 56.286 41.0476 55.7784C40.4794 55.2708 40.1972 54.5871 40.201 53.7273C40.1972 53.0227 40.3847 52.4072 40.7635 51.8807C41.1461 51.3542 41.6707 50.9432 42.3374 50.6477C43.004 50.3523 43.7616 50.2045 44.6101 50.2045C45.4737 50.2045 46.2275 50.3523 46.8714 50.6477C47.5192 50.9432 48.023 51.3542 48.3828 51.8807C48.7427 52.4072 48.9283 53.017 48.9396 53.7102H46.5817Z" fill="white"/>
</svg>
