<?xml version="1.0" standalone="no"?>
<!DOCTYPE svg PUBLIC "-//W3C//DTD SVG 20010904//EN"
 "http://www.w3.org/TR/2001/REC-SVG-20010904/DTD/svg10.dtd">
<svg version="1.0" xmlns="http://www.w3.org/2000/svg"
 width="512.000000pt" height="512.000000pt" viewBox="0 0 512.000000 512.000000"
 preserveAspectRatio="xMidYMid meet">

<g transform="translate(0.000000,512.000000) scale(0.100000,-0.100000)"
fill="#C53720" stroke="none">
<path d="M2535 3384 c-22 -2 -92 -9 -155 -14 -316 -29 -359 -44 -885 -297
-359 -173 -349 -169 -380 -153 -27 15 -74 9 -220 -25 -184 -44 -373 -112 -640
-230 -159 -71 -175 -87 -181 -180 -2 -36 -10 -64 -25 -84 -27 -36 -49 -128
-49 -204 l0 -59 29 7 c31 7 32 5 46 -62 5 -28 2 -36 -21 -57 -39 -33 -21 -55
39 -49 24 3 80 -5 132 -17 57 -14 140 -24 227 -27 l137 -6 -14 54 c-81 302
185 596 495 548 92 -14 181 -58 243 -121 118 -118 159 -269 121 -440 l-6 -28
1142 0 1142 0 -6 28 c-53 220 44 431 241 524 271 128 583 -45 626 -348 8 -53
8 -89 0 -126 -6 -29 -10 -54 -8 -56 1 -2 34 4 71 13 38 9 148 29 244 46 227
38 226 37 236 247 5 117 4 130 -15 162 -43 71 -54 107 -62 200 -5 52 -18 136
-30 187 -20 86 -21 94 -5 117 29 45 22 49 -56 42 -40 -4 -77 -11 -82 -16 -31
-31 -197 6 -483 106 -103 36 -277 97 -386 135 -244 85 -472 145 -631 165 -115
15 -728 28 -831 18z"/>
<path d="M866 2425 c-54 -22 -90 -48 -139 -100 -10 -11 -32 -49 -49 -84 -27
-56 -32 -76 -32 -145 0 -145 67 -257 196 -327 59 -32 69 -34 158 -34 88 0 101
3 162 33 184 90 256 309 163 492 -32 64 -122 144 -190 169 -80 30 -191 28
-269 -4z"/>
<path d="M3998 2426 c-90 -37 -150 -95 -192 -187 -45 -97 -43 -217 6 -313 31
-60 101 -129 165 -162 52 -26 68 -29 153 -29 88 0 101 3 162 33 229 113 274
413 87 586 -75 70 -142 96 -247 96 -57 0 -91 -6 -134 -24z"/>
</g>
</svg>
